<svg xmlns="http://www.w3.org/2000/svg" width="55.6" height="44" viewBox="0 0 55.6 44">
  <g id="email" transform="translate(70 -24.532)">
    <g id="Group_3" data-name="Group 3" transform="translate(-70 24.532)">
      <path id="Path_2" data-name="Path 2" d="M49.466,78.032H6.134A5.9,5.9,0,0,0,.5,84.154V114.91a5.9,5.9,0,0,0,5.634,6.122H49.466A5.9,5.9,0,0,0,55.1,114.91V84.154A5.9,5.9,0,0,0,49.466,78.032Zm-1.857,4.511L29.09,98.506a1.94,1.94,0,0,1-2.58,0L7.991,82.543Zm3.34,32.368a1.551,1.551,0,0,1-1.483,1.611H6.134a1.551,1.551,0,0,1-1.483-1.611V85.422L23.93,102.039a5.843,5.843,0,0,0,7.74,0L50.949,85.422V114.91Z" transform="translate(0 -77.532)" fill="#707070"/>
      <path id="Path_3" data-name="Path 3" d="M49.824,121.532H5.776A6.064,6.064,0,0,1,0,115.23V83.835a6.064,6.064,0,0,1,5.776-6.3H49.824a6.064,6.064,0,0,1,5.776,6.3V115.23A6.064,6.064,0,0,1,49.824,121.532ZM5.776,77.639A5.96,5.96,0,0,0,.1,83.835V115.23a5.96,5.96,0,0,0,5.678,6.2H49.824a5.96,5.96,0,0,0,5.678-6.2V83.835a5.96,5.96,0,0,0-5.678-6.2Zm44.047,39.288H5.776a1.634,1.634,0,0,1-1.556-1.7V85.018L23.9,102.049a5.875,5.875,0,0,0,7.807,0L51.38,85.018V115.23A1.634,1.634,0,0,1,49.824,116.928ZM4.318,85.24v29.99a1.53,1.53,0,0,0,1.458,1.591H49.824a1.53,1.53,0,0,0,1.458-1.591V85.24L31.765,102.134a5.967,5.967,0,0,1-7.929,0ZM27.8,99.039a2.058,2.058,0,0,1-1.342-.513L7.523,82.136H48.077L29.142,98.526A2.058,2.058,0,0,1,27.8,99.039ZM7.805,82.244l18.714,16.2a1.92,1.92,0,0,0,2.561,0l18.714-16.2Z" transform="translate(0 -77.532)" fill="#707070"/>
    </g>
  </g>
</svg>
