<svg xmlns="http://www.w3.org/2000/svg" width="44" height="44" viewBox="0 0 44 44">
  <g id="github" transform="translate(412 -60.329)">
    <g id="Group_5" data-name="Group 5" transform="translate(-412 60.329)">
      <path id="Path_8" data-name="Path 8" d="M22,5.329c-12.147,0-22,10.1-22,22.558a22.52,22.52,0,0,0,15.048,21.4c1.1.208,1.5-.489,1.5-1.087,0-.536-.019-1.955-.03-3.836-6.119,1.362-7.411-3.025-7.411-3.025a5.925,5.925,0,0,0-2.442-3.3c-2-1.4.148-1.371.148-1.371A4.633,4.633,0,0,1,10.183,39c1.963,3.446,5.151,2.452,6.4,1.873a4.854,4.854,0,0,1,1.4-3.016C13.1,37.284,7.964,35.349,7.964,26.707a8.848,8.848,0,0,1,2.266-6.055,8.289,8.289,0,0,1,.215-5.968s1.848-.607,6.05,2.311a20.349,20.349,0,0,1,11.017,0c4.2-2.918,6.044-2.311,6.044-2.311a8.3,8.3,0,0,1,.22,5.968,8.831,8.831,0,0,1,2.26,6.055c0,8.664-5.142,10.571-10.043,11.13a5.458,5.458,0,0,1,1.493,4.176c0,3.016-.028,5.448-.028,6.187,0,.6.4,1.306,1.513,1.084A22.523,22.523,0,0,0,44,27.887C44,15.428,34.15,5.329,22,5.329Z" transform="translate(0 -5.329)" fill="#707070"/>
    </g>
  </g>
</svg>
