<svg xmlns="http://www.w3.org/2000/svg" width="44" height="44" viewBox="0 0 44 44">
  <g id="instagarm" transform="translate(76 69)">
    <g id="Group_12" data-name="Group 12" transform="translate(-76 -69)">
      <path id="Path_4" data-name="Path 4" d="M31.857,0H12.142A12.156,12.156,0,0,0,0,12.142V31.858A12.156,12.156,0,0,0,12.142,44H31.857A12.156,12.156,0,0,0,44,31.858V12.142A12.156,12.156,0,0,0,31.857,0ZM40.1,31.858A8.248,8.248,0,0,1,31.858,40.1H12.142A8.247,8.247,0,0,1,3.9,31.858V12.142A8.248,8.248,0,0,1,12.142,3.9H31.857A8.248,8.248,0,0,1,40.1,12.142V31.858Z" fill="#707070"/>
      <path id="Path_5" data-name="Path 5" d="M52.145,40.97c-6.163,0-11.177,4.546-11.177,10.134s5.014,10.133,11.177,10.133S63.322,56.691,63.322,51.1,58.308,40.97,52.145,40.97Zm0,16.777c-4.041,0-7.329-2.98-7.329-6.644s3.287-6.644,7.329-6.644,7.329,2.981,7.329,6.644S56.186,57.747,52.145,57.747Z" transform="translate(-31.122 -28)" fill="#707070"/>
      <path id="Path_6" data-name="Path 6" d="M123.6,28.251a4.759,4.759,0,0,0-3.307,1.338,4.487,4.487,0,0,0,0,6.465,4.761,4.761,0,0,0,6.618,0,4.5,4.5,0,0,0,0-6.465A4.761,4.761,0,0,0,123.6,28.251Z" transform="translate(-90.29 -22.495)" fill="#707070"/>
    </g>
  </g>
</svg>
