<svg xmlns="http://www.w3.org/2000/svg" width="55.596" height="44" viewBox="0 0 55.596 44">
  <g id="twitter" transform="translate(721.996 187.974)">
    <g id="Group_4" data-name="Group 4" transform="translate(-721.996 -187.974)">
      <path id="Path_7" data-name="Path 7" d="M55.583,87.931A1.748,1.748,0,0,0,54.337,86.4l-5.572-1.437A16.513,16.513,0,0,0,45.5,77.209a11.738,11.738,0,0,0-9.565-4.183c-3.795,0-6.647,1.346-8.476,4-2.309,3.35-2.319,7.963-2.005,10.936-4.7-1.538-12.2-4.835-13.663-9.261a1.652,1.652,0,0,0-1.483-1.184A1.625,1.625,0,0,0,8.769,78.6a22.144,22.144,0,0,0,.108,16.426c.3.75.611,1.447.931,2.086L2.114,94.454a1.507,1.507,0,0,0-1.52.328,1.9,1.9,0,0,0-.586,1.587,27.123,27.123,0,0,0,3.6,10.332c2.841,4.71,8.468,10.325,19.143,10.325a24.356,24.356,0,0,0,14.539-4.562,29.3,29.3,0,0,0,8.1-9.137A27.806,27.806,0,0,0,48.912,93.1l5.806-3.339A1.859,1.859,0,0,0,55.583,87.931Zm-8.928,2.4a1.814,1.814,0,0,0-.868,1.405,23.876,23.876,0,0,1-3.136,9.633c-3.21,5.5-9.269,12.05-19.9,12.05-7.362,0-12.867-2.9-16.363-8.6a23.488,23.488,0,0,1-2.554-5.986l9.617,3.328a1.559,1.559,0,0,0,1.877-.783,1.952,1.952,0,0,0-.232-2.206c-.067-.075-5.916-6.772-4.315-15.689a24.185,24.185,0,0,0,8.4,5.838,50.079,50.079,0,0,0,7.976,2.87,1.53,1.53,0,0,0,1.534-.512,1.945,1.945,0,0,0,.4-1.72c-.017-.069-1.654-6.949.973-10.748,1.2-1.732,3.121-2.573,5.881-2.573,5.629,0,8.814,3.175,9.738,9.706.016.112.03.223.044.335l0,.018A1.746,1.746,0,0,0,46.966,88.2l2.339.6Z" transform="translate(0 -73.026)" fill="#707070"/>
    </g>
  </g>
</svg>
